<svg width="349" height="344" viewBox="0 0 349 344" fill="none" xmlns="http://www.w3.org/2000/svg">
<path d="M324.5 182.5C324.5 265.343 257.343 332.5 174.5 332.5C91.6573 332.5 24.5 265.343 24.5 182.5C24.5 99.6573 91.6573 32.5 174.5 32.5C257.343 32.5 324.5 99.6573 324.5 182.5Z" fill="#FB4D01"/>
<path d="M250.698 242.327C255.772 234.154 260.79 225 265.674 216.008L267.254 176.49C256.009 189.775 243.138 210.142 231.379 228.75L229.634 231.502C231.835 232.986 234.104 234.427 236.402 235.771L245.903 222.126L250.569 225.283L241.379 238.484C244.526 240.083 247.674 241.411 250.698 242.327ZM250.507 215.53L257.289 205.794L258.403 214.05L255.172 218.687L250.507 215.53Z" fill="white"/>
<path d="M176.565 136.153C161.396 154.07 149.227 176.462 142.164 189.46C141.728 190.262 141.314 191.023 140.922 191.743C144.412 194.432 148.547 197.16 153.126 199.738C156.173 195.014 159.314 190.046 162.628 184.8C170.965 171.608 179.845 157.548 188.442 145.591C184.563 142.315 180.357 138.976 176.565 136.153Z" fill="white"/>
<path d="M192.626 201.382C190.284 205.089 188.032 208.65 185.83 212.1C190.311 212.976 194.818 213.502 199.252 213.564L201.955 209.292C210.289 196.105 219.172 182.043 227.766 170.086C224.673 167.475 221.378 164.826 218.245 162.43C209.793 174.215 200.932 188.238 192.626 201.382Z" fill="white"/>
<path d="M279.2 229.998L269.777 220.275C265.464 228.203 261.052 236.213 256.559 243.563L256.64 243.574L251.599 261.379L245.057 266.11C244.856 266.255 244.707 266.458 244.631 266.692C244.555 266.925 244.556 267.176 244.633 267.409C244.711 267.642 244.861 267.844 245.063 267.988C245.264 268.131 245.507 268.208 245.755 268.208H264.601C265.898 268.208 267.174 267.89 268.315 267.284C269.456 266.677 270.426 265.8 271.138 264.732L276.906 256.083L265.321 253.975L279.2 229.998Z" fill="white"/>
<path d="M87.9794 131.087L89.2416 133.848L88.7624 140.057L99.2207 133.474L90.8005 143.599C92.3954 147.498 95.2596 149.858 99.3173 151.167L99.6372 150.904L100.371 149.716C107.351 138.414 126.602 107.231 147.665 90.1624C142.249 85.4404 127.224 73.5518 115.984 76.1581C106.459 78.362 105.599 86.2098 101.559 92.5807C100.163 94.7892 89.0997 105.968 89.0997 113.281L85.4608 118.251L89.7279 125.498L87.9794 131.087Z" fill="white"/>
<path d="M136.445 188.168L137.174 186.824C145.307 171.859 160.053 144.724 178.674 125.448L179.944 106.72C171.754 101.631 163.11 97.2902 154.118 93.7514L152.824 93.2434C140.532 102.722 126.6 119.417 111.239 143.094L81.6904 196.369C74.1287 218.314 67.485 241.809 70.5922 262.025C70.8572 263.748 71.74 265.32 73.0804 266.456C74.4209 267.592 76.1301 268.217 77.8979 268.217H94.4685L104.542 258.288L114.663 224.805L136.445 188.168ZM93.7821 240.901L88.1981 239.993C90.3538 227.106 98.9473 205.734 111.188 182.819C124.638 157.641 140.039 135.045 154.564 119.192L158.765 122.931C126.65 157.989 97.6572 217.732 93.7821 240.901Z" fill="white"/>
<path d="M238.353 174.034L210.303 216.454C212.776 218.633 216.381 221.698 220.646 224.993L248.816 182.154L253.423 185.16C257.538 179.5 261.578 174.351 265.448 170.048L262.648 164.217C260.108 158.931 256.507 154.209 252.062 150.335C246.93 154.597 241.165 161.38 235.127 169.521L238.353 174.034Z" fill="white"/>
<path d="M204.682 125.675C201.8 122.976 198.823 120.392 195.751 117.921C190.359 121.756 185.179 126.567 180.278 131.929C183.966 134.681 188.003 137.891 191.766 141.054C196.223 135.098 200.568 129.831 204.682 125.675Z" fill="white"/>
<path d="M231.089 165.551C236.834 157.868 242.392 151.343 247.508 146.86C243.905 144.46 239.959 142.602 235.801 141.345C231.389 145.45 226.571 151.196 221.558 157.903C224.69 160.295 227.982 162.941 231.089 165.551Z" fill="white"/>
<path d="M158.117 202.397C164.857 205.782 172.322 208.738 179.999 210.761C182.52 206.824 185.118 202.718 187.822 198.433C192.3 191.346 196.937 184.011 201.601 176.884L195.375 172.756L191.866 170.407L186.779 177.791L189.48 179.598L178.752 196.132L173.982 193.126L203.986 146.888L208.755 149.893L197.409 167.378L204.69 172.209C213.298 159.288 221.896 147.426 229.676 139.51L214.213 134.881L208.721 129.547C196.336 142.019 181.13 166.076 167.435 187.751C164.188 192.883 161.11 197.751 158.117 202.397Z" fill="white"/>
<path d="M229.889 247.951L244.714 255.519L248.867 248.18C240.994 245.795 232.697 241.095 225.309 236.069L216.235 254.37L230.036 260.949L226.036 263.198L214.618 257.755L209.46 268.211H236.791C237.105 267.88 240.755 262.176 241.371 261.16L242.767 258.735L228.141 251.265L229.889 247.951Z" fill="white"/>
<path d="M208.461 257.478L213.65 246.958L202.663 241.956L205.036 236.891L216.124 241.936L220.642 232.774C215.032 228.648 209.642 224.238 204.493 219.564C203.063 219.657 201.608 219.705 200.142 219.705H200.122L176.202 268.209H203.168L205.987 262.494L195.86 257.885L198.233 252.82L208.461 257.478Z" fill="white"/>
<path d="M193.96 219.441C190.029 219.099 186.127 218.496 182.278 217.637L181.813 217.536C177.546 216.566 173.343 215.342 169.227 213.873L142.427 268.214H158.714L172.918 244.562H181.564L193.96 219.441ZM176.492 232.495L170.61 230.431L173.366 225.577L179.248 227.641L176.492 232.495Z" fill="white"/>
<path d="M138.161 197.416L120.405 227.269C120.405 227.269 112.813 251.535 109.353 262.79C108.487 265.612 107.879 267.617 107.717 268.217H118.575L132.197 238.568L137.351 240.868L124.787 268.217H136.132L163.936 211.85C154.227 207.87 145.281 202.766 138.161 197.416ZM136.047 230.195L140.542 220.411L145.697 222.713L141.203 232.495L136.047 230.195Z" fill="white"/>
</svg>
